<svg version="1.2" xmlns="http://www.w3.org/2000/svg" viewBox="0 0 1440 6160" width="1440" height="6160">
	<title>Lpage2</title>
	<style>
		tspan { white-space:pre } 
		.s0 { fill: #FFFFFF } 
	</style>
	<g id="Welcome">
		<path id="logo" fill-rule="evenodd" class="s0" d="m237.8 100c-10.1 0.3-16.8-5.6-16.8-16 0-12.1 8.3-20.4 20.7-20.3 6 0.1 10.2 2.1 12 3.3l-3.3 7.6c-1.5-0.7-4.4-1.2-6.7-1.2-6.1 0-9.1 4-9.3 9.1-0.2 5.3 3.1 8.8 7.9 9.3 4.8 0.4 8.3-0.7 10.3-1.6l1.9-13.2h10.3l-1.9 12.8c-0.1 1.2 0.6 2.1 1.7 2.1 1 0 1.9-0.9 2.1-2.1l1.8-12.8h10.3l-2 14.3c-0.3 1.7 0.4 2.8 4.1 1.3q-0.2-1.2-0.2-2.5c0-7.8 4.9-13.7 11.1-13.7 2.5 0 4.1 1.1 5.4 2.8l1.5-11.1h10.2l-3.2 23.3c-0.2 1.6 0.5 2.9 4.5 0.8q-0.2-1-0.2-2.1c0-7.6 5-13.7 11.2-13.7 2.4 0 4.1 1.1 5.3 2.8l0.3-2.2h10.2l-2 14.4c-0.2 1.7 0.8 2 2.4 1.6l-0.4 4.4q-3.3 2.6-6.4 2.6c-3.2 0-5.2-1.5-5.8-3.5-1.8 2.1-4.1 3.5-7.3 3.5-2.4 0-4.3-1.2-5.6-3.1-1.8 1.1-5.8 3.2-10.7 3.1-3.1-0.1-5.1-1.5-5.8-3.5-1.8 2-3.9 3.5-7.2 3.5-2.4 0-4.3-1.1-5.6-3-5.1 2.4-8.2 3-10.3 3-3.2 0-5.1-1.3-5.8-3.2-2.3 2.1-4.8 3.2-7.6 3.2-3.2 0-5.4-1.7-6.3-4.2-4.8 2.5-9.2 4-14.8 4.2zm59-12.4c0-1.8-1-3.2-2.5-3.2-2 0-3.6 2-3.6 4.4 0 1.7 1 3.1 2.5 3.1 2 0 3.6-2 3.6-4.3zm29.3 0c0-1.8-1-3.2-2.5-3.2-2 0-3.5 2-3.5 4.4 0 1.7 0.9 3.1 2.5 3.1 1.9 0 3.5-2 3.5-4.3z"/>
	</g>
</svg>